<svg width="36" height="40" viewBox="0 0 36 40" fill="none" xmlns="http://www.w3.org/2000/svg">
<path fill-rule="evenodd" clip-rule="evenodd" d="M25.2 3.11111V5.33333H34.65C35.3956 5.33333 36 5.93029 36 6.66667C36 7.40305 35.3956 8 34.65 8H1.35C0.604416 8 0 7.40305 0 6.66667C0 5.93029 0.604416 5.33333 1.35 5.33333H10.8V3.11111C10.8 1.39289 12.2103 0 13.95 0H22.05C23.7897 0 25.2 1.39289 25.2 3.11111ZM13.5 3.11111C13.5 2.86565 13.7015 2.66667 13.95 2.66667H22.05C22.2985 2.66667 22.5 2.86565 22.5 3.11111V5.33333H13.5V3.11111Z" fill="#FF9292"/>
<path d="M5.39382 10.9827C5.322 10.2497 4.66218 9.71304 3.92006 9.78397C3.17794 9.8549 2.63456 10.5066 2.70637 11.2395L5.24896 37.1886C5.40521 38.7833 6.76214 40 8.38431 40H27.6159C29.2381 40 30.595 38.7833 30.7512 37.1886L33.2938 11.2395C33.3656 10.5066 32.8223 9.8549 32.0801 9.78397C31.338 9.71304 30.6782 10.2497 30.6064 10.9827L28.0638 36.9317C28.0415 37.1595 27.8476 37.3333 27.6159 37.3333H8.38431C8.15257 37.3333 7.95873 37.1595 7.9364 36.9317L5.39382 10.9827Z" fill="#FF9292"/>
<path d="M12.9708 13.3356C13.7151 13.2924 14.3539 13.8533 14.3977 14.5884L15.2977 29.6995C15.3415 30.4346 14.7736 31.0656 14.0293 31.1088C13.285 31.1521 12.6462 30.5912 12.6024 29.8561L11.7024 14.745C11.6586 14.0098 12.2265 13.3789 12.9708 13.3356Z" fill="#FF9292"/>
<path d="M24.2977 14.745C24.3415 14.0098 23.7736 13.3789 23.0293 13.3356C22.285 13.2924 21.6462 13.8533 21.6024 14.5884L20.7024 29.6995C20.6586 30.4346 21.2265 31.0656 21.9708 31.1088C22.7151 31.1521 23.3539 30.5912 23.3977 29.8561L24.2977 14.745Z" fill="#FF9292"/>
</svg>
