<svg width="27" height="39" viewBox="0 0 27 39" fill="none" xmlns="http://www.w3.org/2000/svg">
<path d="M4.00818 36.9787L6.73601 36.2331C8.87538 35.6483 10.5907 34.3774 11.5999 32.6294L25.0409 9.34898C26.2682 7.22323 25.1306 4.26876 22.5 2.74997C19.8694 1.23119 16.7419 1.72323 15.5146 3.84898L2.07366 27.1294C1.06446 28.8774 0.821498 30.9984 1.38475 33.1436L2.10293 35.8787M4.00818 36.9787L3.25409 37.1849M4.00818 36.9787L7.02231 36.1548L1.30933 32.8564L2.10293 35.8787M3.25409 37.1849C2.86749 37.2905 2.40324 37.0225 2.30146 36.6349M3.25409 37.1849L2.49997 37.391L2.30146 36.6349M2.30146 36.6349L2.10293 35.8787M1.69047 27.895L4.49942 27.4523C4.84051 27.3986 5.21767 27.6163 5.34166 27.9386L6.16173 30.0701C6.28572 30.3924 6.66288 30.6101 7.00397 30.5564L9.25994 30.2008C9.60103 30.1471 9.97819 30.3648 10.1022 30.6871L11.1258 33.3477M22.814 13.1953L13.293 7.69831" stroke="#F2994A" stroke-width="2" stroke-linecap="round" stroke-linejoin="round"/>
</svg>
