<svg width="37" height="40" viewBox="0 0 37 40" fill="none" xmlns="http://www.w3.org/2000/svg">
<path fill-rule="evenodd" clip-rule="evenodd" d="M25.7 3.11111V5.33333H35.15C35.8956 5.33333 36.5 5.93029 36.5 6.66667C36.5 7.40305 35.8956 8 35.15 8H1.85C1.10442 8 0.5 7.40305 0.5 6.66667C0.5 5.93029 1.10442 5.33333 1.85 5.33333H11.3V3.11111C11.3 1.39289 12.7103 0 14.45 0H22.55C24.2897 0 25.7 1.39289 25.7 3.11111ZM14 3.11111C14 2.86565 14.2015 2.66667 14.45 2.66667H22.55C22.7985 2.66667 23 2.86565 23 3.11111V5.33333H14V3.11111Z" fill="#CCC3C3"/>
<path d="M5.89382 10.9827C5.822 10.2497 5.16218 9.71304 4.42006 9.78397C3.67794 9.8549 3.13456 10.5066 3.20637 11.2395L5.74896 37.1886C5.90521 38.7833 7.26214 40 8.88431 40H28.1159C29.7381 40 31.095 38.7833 31.2512 37.1886L33.7938 11.2395C33.8656 10.5066 33.3223 9.8549 32.5801 9.78397C31.838 9.71304 31.1782 10.2497 31.1064 10.9827L28.5638 36.9317C28.5415 37.1595 28.3476 37.3333 28.1159 37.3333H8.88431C8.65257 37.3333 8.45873 37.1595 8.4364 36.9317L5.89382 10.9827Z" fill="#CCC3C3"/>
<path d="M13.4708 13.3356C14.2151 13.2924 14.8539 13.8533 14.8977 14.5884L15.7977 29.6995C15.8415 30.4346 15.2736 31.0656 14.5293 31.1088C13.785 31.1521 13.1462 30.5912 13.1024 29.8561L12.2024 14.745C12.1586 14.0098 12.7265 13.3789 13.4708 13.3356Z" fill="#CCC3C3"/>
<path d="M24.7977 14.745C24.8415 14.0098 24.2736 13.3789 23.5293 13.3356C22.785 13.2924 22.1462 13.8533 22.1024 14.5884L21.2024 29.6995C21.1586 30.4346 21.7265 31.0656 22.4708 31.1088C23.2151 31.1521 23.8539 30.5912 23.8977 29.8561L24.7977 14.745Z" fill="#CCC3C3"/>
</svg>
