<svg width="17" height="18" viewBox="0 0 17 18" fill="none" xmlns="http://www.w3.org/2000/svg">
<path d="M14.7222 0.640991H2.27778V1.64099H14.7222V0.640991ZM2.27778 0.640991C1.02386 0.640991 0 1.66485 0 2.91877H1C1 2.21713 1.57614 1.64099 2.27778 1.64099V0.640991ZM0 2.91877V15.3632H1V2.91877H0ZM0 15.3632C0 16.6171 1.02386 17.641 2.27778 17.641V16.641C1.57614 16.641 1 16.0648 1 15.3632H0ZM2.27778 17.641H14.7222V16.641H2.27778V17.641ZM14.7222 17.641C15.9761 17.641 17 16.6171 17 15.3632H16C16 16.0648 15.4239 16.641 14.7222 16.641V17.641ZM17 15.3632V2.91877H16V15.3632H17ZM17 2.91877C17 1.66485 15.9761 0.640991 14.7222 0.640991V1.64099C15.4239 1.64099 16 2.21713 16 2.91877H17Z" fill="#4F4F4F"/>
</svg>
