<svg width="22" height="22" viewBox="0 0 22 22" fill="none" xmlns="http://www.w3.org/2000/svg">
<path d="M13.1204 13.1279L14.3435 14.3497M14.3437 15.9291L19.0909 20.6727C19.5276 21.1091 20.2357 21.1091 20.6725 20.6728C21.1091 20.2366 21.1092 19.5293 20.6726 19.093L15.9254 14.3494C15.4887 13.9131 14.7805 13.913 14.3438 14.3493C13.9071 14.7856 13.9071 15.4928 14.3437 15.9291ZM3.08141 13.1181C1.2863 11.3249 0.585232 8.71111 1.24229 6.26146C1.89934 3.81181 3.8147 1.89842 6.26686 1.24204C8.71902 0.585657 11.3354 1.28601 13.1306 3.07927C14.9257 4.87254 15.6267 7.48629 14.9697 9.93593C14.3126 12.3856 12.3973 14.299 9.9451 14.9554C7.49294 15.6117 4.87652 14.9114 3.08141 13.1181Z" stroke="#4E7CCA" stroke-opacity="0.5" stroke-width="2" stroke-linecap="round" stroke-linejoin="round"/>
</svg>
