<svg width="28" height="39" viewBox="0 0 28 39" fill="none" xmlns="http://www.w3.org/2000/svg">
<path d="M4.50817 36.9787L7.236 36.2331C9.37536 35.6483 11.0907 34.3774 12.0999 32.6294L25.5409 9.34898C26.7682 7.22323 25.6306 4.26876 23 2.74997C20.3694 1.23119 17.2419 1.72323 16.0146 3.84898L2.57365 27.1294C1.56444 28.8774 1.32148 30.9984 1.88473 33.1436L2.60291 35.8787M4.50817 36.9787L3.75407 37.1849M4.50817 36.9787L7.5223 36.1548L1.80932 32.8564L2.60291 35.8787M3.75407 37.1849C3.36748 37.2905 2.90323 37.0225 2.80145 36.6349M3.75407 37.1849L2.99995 37.391L2.80145 36.6349M2.80145 36.6349L2.60291 35.8787M2.19045 27.895L4.9994 27.4523C5.34049 27.3986 5.71765 27.6163 5.84165 27.9386L6.66171 30.0701C6.7857 30.3924 7.16286 30.6101 7.50396 30.5564L9.75993 30.2008C10.101 30.1471 10.4782 30.3648 10.6022 30.6871L11.6258 33.3477M23.314 13.1953L13.793 7.69831" stroke="#F8CDA8" stroke-width="2" stroke-linecap="round" stroke-linejoin="round"/>
</svg>
