<svg width="23" height="23" viewBox="0 0 23 23" fill="none" xmlns="http://www.w3.org/2000/svg">
<path fill-rule="evenodd" clip-rule="evenodd" d="M6.77083 1.8646C6.77083 0.858354 7.5875 0.041687 8.59375 0.041687H14.3229C15.3292 0.041687 16.1458 0.858354 16.1458 1.8646V4.20835H21.0938C22.1 4.20835 22.9167 5.02502 22.9167 6.03127V21.1354C22.9167 21.6189 22.7246 22.0826 22.3827 22.4244C22.0409 22.7663 21.5772 22.9584 21.0938 22.9584H1.82292C1.33945 22.9584 0.875783 22.7663 0.53392 22.4244C0.192057 22.0826 0 21.6189 0 21.1354V6.03127C0 5.02502 0.816667 4.20835 1.82292 4.20835H6.77083V1.8646ZM1.5625 12.5313V21.1354C1.5625 21.2792 1.67917 21.3959 1.82292 21.3959H21.0938C21.1628 21.3959 21.2291 21.3684 21.2779 21.3196C21.3267 21.2707 21.3542 21.2045 21.3542 21.1354V12.5313C20.555 13.2117 19.5392 13.5848 18.4896 13.5834H4.42708C3.37743 13.5848 2.3617 13.2117 1.5625 12.5313ZM21.3542 9.15627C21.3542 9.91601 21.0524 10.6446 20.5151 11.1818C19.9779 11.7191 19.2493 12.0209 18.4896 12.0209H4.42708C3.66735 12.0209 2.93873 11.7191 2.40152 11.1818C1.8643 10.6446 1.5625 9.91601 1.5625 9.15627V6.03127C1.5625 5.9622 1.58994 5.89597 1.63877 5.84713C1.68761 5.79829 1.75385 5.77085 1.82292 5.77085H21.0938C21.1628 5.77085 21.2291 5.79829 21.2779 5.84713C21.3267 5.89597 21.3542 5.9622 21.3542 6.03127V9.15627ZM14.5833 1.8646V4.20835H8.33333V1.8646C8.33333 1.79554 8.36077 1.7293 8.40961 1.68046C8.45844 1.63162 8.52468 1.60419 8.59375 1.60419H14.3229C14.392 1.60419 14.4582 1.63162 14.5071 1.68046C14.5559 1.7293 14.5833 1.79554 14.5833 1.8646Z" fill="#4F4F4F"/>
</svg>
