<svg width="27" height="39" viewBox="0 0 27 39" fill="none" xmlns="http://www.w3.org/2000/svg">
<path d="M4.00823 36.9787L6.73606 36.2331C8.87542 35.6483 10.5908 34.3774 11.6 32.6294L25.041 9.34898C26.2683 7.22323 25.1307 4.26876 22.5 2.74997C19.8694 1.23119 16.742 1.72323 15.5147 3.84898L2.07371 27.1294C1.0645 28.8774 0.821543 30.9984 1.38479 33.1436L2.10297 35.8787M4.00823 36.9787L3.25414 37.1849M4.00823 36.9787L7.02236 36.1548L1.30938 32.8564L2.10297 35.8787M3.25414 37.1849C2.86754 37.2905 2.40329 37.0225 2.30151 36.6349M3.25414 37.1849L2.50002 37.391L2.30151 36.6349M2.30151 36.6349L2.10297 35.8787M1.69051 27.895L4.49946 27.4523C4.84056 27.3986 5.21772 27.6163 5.34171 27.9386L6.16177 30.0701C6.28577 30.3924 6.66293 30.6101 7.00402 30.5564L9.25999 30.2008C9.60108 30.1471 9.97824 30.3648 10.1022 30.6871L11.1259 33.3477M22.8141 13.1953L13.293 7.69831" stroke="#CCC3C3" stroke-width="2" stroke-linecap="round" stroke-linejoin="round"/>
</svg>
