<svg width="23" height="23" viewBox="0 0 23 23" fill="none" xmlns="http://www.w3.org/2000/svg">
<path d="M6.0375 4.6C5.56115 4.6 5.175 4.98615 5.175 5.4625V14.0875C5.175 14.5638 5.56115 14.95 6.0375 14.95C6.51385 14.95 6.9 14.5638 6.9 14.0875V5.4625C6.9 4.98615 6.51385 4.6 6.0375 4.6Z" fill="#4F4F4F"/>
<path d="M11.5 4.6C11.0237 4.6 10.6375 4.98615 10.6375 5.4625V10.6375C10.6375 11.1138 11.0237 11.5 11.5 11.5C11.9763 11.5 12.3625 11.1138 12.3625 10.6375V5.4625C12.3625 4.98615 11.9763 4.6 11.5 4.6Z" fill="#4F4F4F"/>
<path d="M16.1 5.4625C16.1 4.98615 16.4862 4.6 16.9625 4.6C17.4388 4.6 17.825 4.98615 17.825 5.4625V16.3875C17.825 16.8638 17.4388 17.25 16.9625 17.25C16.4862 17.25 16.1 16.8638 16.1 16.3875V5.4625Z" fill="#4F4F4F"/>
<path fill-rule="evenodd" clip-rule="evenodd" d="M2.0125 0C0.901026 0 0 0.901028 0 2.0125V20.9875C0 22.099 0.901028 23 2.0125 23H20.9875C22.099 23 23 22.099 23 20.9875V2.0125C23 0.901026 22.099 0 20.9875 0H2.0125ZM1.725 2.0125C1.725 1.85372 1.85372 1.725 2.0125 1.725H20.9875C21.1463 1.725 21.275 1.85372 21.275 2.0125V20.9875C21.275 21.1463 21.1463 21.275 20.9875 21.275H2.0125C1.85372 21.275 1.725 21.1463 1.725 20.9875V2.0125Z" fill="#4F4F4F"/>
</svg>
