<svg width="23" height="19" viewBox="0 0 23 19" fill="none" xmlns="http://www.w3.org/2000/svg">
<path fill-rule="evenodd" clip-rule="evenodd" d="M1.75 1.5C1.61193 1.5 1.5 1.61193 1.5 1.75V17.25C1.5 17.3881 1.61193 17.5 1.75 17.5H4.92808L13.4996 8.47733C14.1774 7.76388 15.31 7.74936 16.0058 8.4452L21.5 13.9394V1.75C21.5 1.61193 21.3881 1.5 21.25 1.5H1.75ZM21.25 19H5.25985H5.23991H1.75C0.783502 19 0 18.2165 0 17.25V1.75C0 0.783501 0.783503 0 1.75 0H21.25C22.2165 0 23 0.783502 23 1.75V17.25C23 18.2165 22.2165 19 21.25 19ZM14.5871 9.51045L6.99705 17.5H21.25C21.3881 17.5 21.5 17.3881 21.5 17.25V16.0607L14.9451 9.50586C14.8457 9.40646 14.6839 9.40853 14.5871 9.51045ZM8.49999 6.75002C8.49999 7.71652 7.71649 8.50002 6.74999 8.50002C5.7835 8.50002 4.99999 7.71652 4.99999 6.75002C4.99999 5.78352 5.7835 5.00002 6.74999 5.00002C7.71649 5.00002 8.49999 5.78352 8.49999 6.75002ZM9.99999 6.75002C9.99999 8.54494 8.54492 10 6.74999 10C4.95507 10 3.49999 8.54494 3.49999 6.75002C3.49999 4.95509 4.95507 3.50002 6.74999 3.50002C8.54492 3.50002 9.99999 4.95509 9.99999 6.75002Z" fill="#4F4F4F"/>
</svg>
