<svg width="41" height="42" viewBox="0 0 41 42" fill="none" xmlns="http://www.w3.org/2000/svg">
<path d="M36.0556 0.640991H4.94444V1.64099H36.0556V0.640991ZM4.94444 0.640991C2.22386 0.640991 0 2.86485 0 5.58544H1C1 3.41713 2.77614 1.64099 4.94444 1.64099V0.640991ZM0 5.58544V36.6965H1V5.58544H0ZM0 36.6965C0 39.4171 2.22386 41.641 4.94444 41.641V40.641C2.77614 40.641 1 38.8648 1 36.6965H0ZM4.94444 41.641H36.0556V40.641H4.94444V41.641ZM36.0556 41.641C38.7761 41.641 41 39.4171 41 36.6965H40C40 38.8648 38.2239 40.641 36.0556 40.641V41.641ZM41 36.6965V5.58544H40V36.6965H41ZM41 5.58544C41 2.86485 38.7761 0.640991 36.0556 0.640991V1.64099C38.2239 1.64099 40 3.41713 40 5.58544H41Z" fill="#4F4F4F"/>
</svg>
